# File created by Blade
# Date/Time:  Tue Jan 27 19:58:39 2015
#---------------------------------------------------------
:version 1.10
:name HOM
:units
  mass 1.0
  length 1.000000
  angle deg
:documentation
     Acclaim Skeleton File
:root
   axis xyz
   order TX TY TZ RX RY RZ
   position 0.000000 0.000000 0.000000
   orientation 0 0 0
:bonedata
   begin
      id 1
      name Spine_dum
      direction 0.000000 1.000000 0.000000
      length 6.116652
      axis 0.0 0.0 0.0 xyz
   end
   begin
      id 2
      name LeftUpLeg_dum
      direction 1.000000 0.000000 0.000000
      length 4.711765
      axis 0.0 0.0 0.0 xyz
   end
   begin
      id 3
      name RightUpLeg_dum
      direction -1.000000 0.000000 0.000000
      length 4.711765
      axis 0.0 0.0 0.0 xyz
   end
   begin
      id 4
      name Spine
      direction 0.000000 1.000000 0.000000
      length 0.000000
      axis 0.0 0.0 0.0 xyz
      dof rx ry rz
   end
   begin
      id 5
      name Spine_dum1
      direction 0.000000 1.000000 0.000000
      length 15.225563
      axis 0.0 0.0 0.0 xyz
   end
   begin
      id 6
      name Spine_dum2
      direction 0.000000 1.000000 0.000000
      length 8.977654
      axis 0.0 0.0 0.0 xyz
   end
   begin
      id 7
      name Spine_dum3
      direction 0.000000 1.000000 0.000000
      length 8.977654
      axis 0.0 0.0 0.0 xyz
   end
   begin
      id 8
      name Head
      direction 0.000000 1.000000 0.000000
      length 4.527550
      axis 0.0 0.0 0.0 xyz
      dof rx ry rz
   end
   begin
      id 9
      name LeftShoulder
      direction 1.000000 0.000000 0.000000
      length 7.110130
      axis 0.0 0.0 -90.0 xyz
      dof rx ry rz
   end
   begin
      id 10
      name LeftArm
      direction 1.000000 0.000000 0.000000
      length 10.398341
      axis 0.0 0.0 -90.0 xyz
      dof rx ry rz
   end
   begin
      id 11
      name LeftForeArm
      direction 1.000000 0.000000 0.000000
      length 8.888997
      axis 0.0 0.0 -90.0 xyz
      dof ry rz rx
   end
   begin
      id 12
      name LeftHand
      direction 0.000000 0.000000 0.000000
      length 0.000000
      axis 0.0 0.0 -90.0 xyz
      dof rx ry rz
   end
   begin
      id 13
      name LeftHand_dum1
      direction 0.000000 0.000000 0.000000
      length 0.000000
      axis 0.0 0.0 -90.0 xyz
   end
   begin
      id 14
      name LeftHand_dum2
      direction 1.000000 0.000000 0.000000
      length 3.937000
      axis 0.0 0.0 -90.0 xyz
   end
   begin
      id 15
      name LeftHandThumb1
      direction 0.000000 0.000000 1.000000
      length 3.937000
      axis 0.0 0.0 -90.0 xyz
      dof rx rz ry
   end
   begin
      id 16
      name RightShoulder
      direction -1.000000 0.000000 0.000000
      length 7.110130
      axis 0.0 0.0 90.0 xyz
      dof rx ry rz
   end
   begin
      id 17
      name RightArm
      direction -1.000000 0.000000 0.000000
      length 10.398341
      axis 0.0 0.0 90.0 xyz
      dof rx ry rz
   end
   begin
      id 18
      name RightForeArm
      direction -1.000000 0.000000 0.000000
      length 8.888997
      axis 0.0 0.0 90.0 xyz
      dof ry rz rx
   end
   begin
      id 19
      name RightHand
      direction 0.000000 0.000000 0.000000
      length 0.000000
      axis 0.0 0.0 90.0 xyz
      dof rx ry rz
   end
   begin
      id 20
      name RightHand_dum1
      direction 0.000000 0.000000 0.000000
      length 0.000000
      axis 0.0 0.0 90.0 xyz
   end
   begin
      id 21
      name RightHand_dum2
      direction -1.000000 0.000000 0.000000
      length 3.937000
      axis 0.0 0.0 90.0 xyz
   end
   begin
      id 22
      name RightHandThumb1
      direction 0.000000 0.000000 1.000000
      length 3.937000
      axis 0.0 0.0 90.0 xyz
      dof rx rz ry
   end
   begin
      id 23
      name LeftUpLeg
      direction 0.000000 -1.000000 0.000000
      length 15.510451
      axis 0.0 0.0 0.0 xyz
      dof rx ry rz
   end
   begin
      id 24
      name LeftLeg
      direction 0.000000 -1.000000 0.000000
      length 14.858061
      axis 0.0 0.0 0.0 xyz
      dof rx ry rz
   end
   begin
      id 25
      name LeftFoot
      direction 0.000000 -0.258819 0.965926
      length 5.128852
      axis 15.0 0.0 0.0 xyz
      dof rx ry rz
   end
   begin
      id 26
      name LeftToeBase
      direction 0.000000 0.000000 1.000000
      length 2.952750
      axis 0.0 0.0 0.0 xyz
      dof rx ry rz
   end
   begin
      id 27
      name RightUpLeg
      direction 0.000000 -1.000000 0.000000
      length 15.510451
      axis 0.0 0.0 0.0 xyz
      dof rx ry rz
   end
   begin
      id 28
      name RightLeg
      direction 0.000000 -1.000000 0.000000
      length 14.858061
      axis 0.0 0.0 0.0 xyz
      dof rx ry rz
   end
   begin
      id 29
      name RightFoot
      direction 0.000000 -0.258819 0.965926
      length 5.128852
      axis 15.0 0.0 0.0 xyz
      dof rx ry rz
   end
   begin
      id 30
      name RightToeBase
      direction 0.000000 0.000000 1.000000
      length 2.952750
      axis 0.0 0.0 0.0 xyz
      dof rx ry rz
   end
:hierarchy
   begin
      root Spine_dum LeftUpLeg_dum RightUpLeg_dum
      Spine_dum Spine
      LeftUpLeg_dum LeftUpLeg
      RightUpLeg_dum RightUpLeg
      Spine Spine_dum1 Spine_dum2 Spine_dum3
      Spine_dum1 Head
      Spine_dum2 LeftShoulder
      Spine_dum3 RightShoulder
      LeftShoulder LeftArm
      LeftArm LeftForeArm
      LeftForeArm LeftHand
      LeftHand LeftHand_dum1 LeftHand_dum2
      LeftHand_dum1 LeftHandThumb1
      RightShoulder RightArm
      RightArm RightForeArm
      RightForeArm RightHand
      RightHand RightHand_dum1 RightHand_dum2
      RightHand_dum1 RightHandThumb1
      LeftUpLeg LeftLeg
      LeftLeg LeftFoot
      LeftFoot LeftToeBase
      RightUpLeg RightLeg
      RightLeg RightFoot
      RightFoot RightToeBase
   end

# File created by Blade
# Date/Time:  Tue Jan 27 19:58:31 2015
# Frame Rate: 120.000 fps
#------------------------------------------------------
:FULLY-SPECIFIED
:DEGREES
968
root 5.397901 34.003945 1.904278 7.518307 8.492524 -22.279775
Spine 0.473953 8.725905 13.752046
Head -23.211561 -12.658384 15.911624
LeftShoulder -16.299635 0.724741 31.504592
LeftArm -10.793390 -1.890701 -86.813537
LeftForeArm -2.195082 0.000000 123.792265
LeftHand 13.154241 0.000000 -2.883832
LeftHandThumb1 -26.253704 0.000000 33.147579
RightShoulder -23.554056 -15.948059 -19.190088
RightArm 5.627064 -8.421696 89.321040
RightForeArm -11.597795 -0.000000 16.709442
RightHand 17.687270 -0.000000 4.994176
RightHandThumb1 -24.326973 -0.000000 -32.862282
LeftUpLeg -5.654887 -1.413566 16.456979
LeftLeg -2.860275 -0.000000 0.000000
LeftFoot -11.626380 13.329028 -15.222210
LeftToeBase 19.253325 -0.000000 -0.000000
RightUpLeg -40.269174 -6.891607 35.615814
RightLeg 131.925877 -0.000000 -0.000000
RightFoot 34.106860 -21.686639 25.555500
RightToeBase 9.833416 -0.000000 -0.000000
969
root 5.398253 34.000325 1.897987 7.566007 8.443488 -22.264582
Spine 0.558096 8.767486 13.712456
Head -23.390085 -12.625036 15.924374
LeftShoulder -16.347973 0.657932 31.481571
LeftArm -10.834247 -2.033357 -86.690880
LeftForeArm -2.356804 -0.000000 123.832314
LeftHand 13.213076 -0.000000 -2.895532
LeftHandThumb1 -26.253704 0.000000 33.147579
RightShoulder -23.509007 -15.836998 -19.265230
RightArm 5.495694 -8.476205 89.357727
RightForeArm -11.635129 0.000000 16.695123
RightHand 17.663795 -0.000000 4.958982
RightHandThumb1 -24.326973 -0.000000 -32.862282
LeftUpLeg -5.702225 -1.214158 16.420451
LeftLeg -2.841275 -0.000000 0.000000
LeftFoot -11.634907 13.163814 -15.277381
LeftToeBase 19.306724 -0.000000 -0.000000
RightUpLeg -40.199992 -6.861560 35.475130
RightLeg 131.420750 -0.000000 -0.000000
RightFoot 33.932040 -21.585034 25.882172
RightToeBase 12.276397 -0.000000 -0.000000
970
root 5.400705 33.995649 1.895283 7.578885 8.396276 -22.222532
Spine 0.647390 8.838449 13.633169
Head -23.491352 -12.641081 15.951917
LeftShoulder -16.311911 0.604984 31.473842
LeftArm -10.861504 -2.179054 -86.596920
LeftForeArm -2.515113 0.000000 123.871825
LeftHand 13.326469 -0.000000 -2.955832
LeftHandThumb1 -26.253704 0.000000 33.147579
RightShoulder -23.482032 -16.074798 -19.154318
RightArm 5.687316 -8.443990 89.345820
RightForeArm -11.667630 -0.000000 16.714480
RightHand 17.730084 -0.000000 4.712062
RightHandThumb1 -24.326973 -0.000000 -32.862282
LeftUpLeg -5.712495 -1.077034 16.358087
LeftLeg -2.804464 -0.000000 0.000000
LeftFoot -11.661985 13.042998 -15.314330
LeftToeBase 19.299017 -0.000000 -0.000000
RightUpLeg -40.148552 -6.903175 35.330738
RightLeg 130.966160 -0.000000 -0.000000
RightFoot 34.033802 -21.300929 25.302020
RightToeBase 11.254834 -0.000000 -0.000000
971
root 5.402663 33.992445 1.894889 7.590279 8.339025 -22.199481
Spine 0.700274 8.955683 13.555969
Head -23.529394 -12.688785 16.020613
LeftShoulder -16.271658 0.572280 31.502405
LeftArm -10.835135 -2.260370 -86.575463
LeftForeArm -2.541532 0.000000 123.882961
LeftHand 13.362848 -0.000000 -2.980542
LeftHandThumb1 -26.253704 0.000000 33.147579
RightShoulder -23.497907 -16.002750 -19.172502
RightArm 5.551080 -8.523266 89.378927
RightForeArm -11.593776 -0.000000 16.662414
RightHand 17.770397 0.000000 4.670206
RightHandThumb1 -24.326973 -0.000000 -32.862282
LeftUpLeg -5.702843 -0.961085 16.323012
LeftLeg -2.794863 -0.000000 0.000000
LeftFoot -11.671172 12.935321 -15.335780
LeftToeBase 19.390903 -0.000000 -0.000000
RightUpLeg -40.061930 -6.874880 35.157643
RightLeg 130.466023 -0.000000 -0.000000
RightFoot 33.978997 -21.460313 25.046330
RightToeBase 9.113623 -0.000000 -0.000000
972
root 5.407674 33.988295 1.898689 7.568344 8.283675 -22.145569
Spine 0.775705 9.022795 13.462814
Head -23.525351 -12.717671 16.029520
LeftShoulder -16.260838 0.589769 31.504443
LeftArm -10.769005 -2.284057 -86.559844
LeftForeArm -2.578778 -0.000000 123.898730
LeftHand 13.394045 -0.000000 -2.888417
LeftHandThumb1 -26.253704 0.000000 33.147579
RightShoulder -23.515071 -16.078690 -19.148130
RightArm 5.582216 -8.586023 89.412059
RightForeArm -11.548100 0.000000 16.616035
RightHand 17.743614 -0.000000 4.678422
RightHandThumb1 -24.326973 -0.000000 -32.862282
LeftUpLeg -5.645256 -0.915632 16.252006
LeftLeg -2.769271 -0.000000 0.000000
LeftFoot -11.643436 12.879956 -15.230047
LeftToeBase 19.054230 -0.000000 -0.000000
RightUpLeg -39.986831 -6.902259 34.964193
RightLeg 130.024858 -0.000000 -0.000000
RightFoot 33.896040 -21.440299 24.458066
RightToeBase 7.895633 -0.000000 -0.000000
973
root 5.412230 33.986537 1.904397 7.535436 8.225862 -22.116283
Spine 0.841670 9.090685 13.400792
Head -23.488902 -12.796704 16.039888
LeftShoulder -16.251731 0.594712 31.486245
LeftArm -10.729524 -2.276476 -86.556861
LeftForeArm -2.544596 0.000000 123.927384
LeftHand 13.475981 -0.000000 -2.877479
LeftHandThumb1 -26.253704 0.000000 33.147579
RightShoulder -23.522869 -16.103506 -19.160621
RightArm 5.547570 -8.624598 89.474162
RightForeArm -11.637654 -0.000000 16.600968
RightHand 17.571109 -0.000000 4.653142
RightHandThumb1 -24.326973 -0.000000 -32.862282
LeftUpLeg -5.567091 -0.882709 16.214631
LeftLeg -2.780594 -0.000000 0.000000
LeftFoot -11.651902 12.838084 -15.296625
LeftToeBase 19.004039 -0.000000 -0.000000
RightUpLeg -39.881724 -6.896308 34.768050
RightLeg 129.550393 -0.000000 -0.000000
RightFoot 33.703181 -21.541621 24.394343
RightToeBase 6.772327 -0.000000 -0.000000
974
root 5.416615 33.985139 1.912589 7.492435 8.174579 -22.087959
Spine 0.891403 9.141265 13.333500
Head -23.398587 -12.870168 16.038231
LeftShoulder -16.269088 0.626907 31.459929
LeftArm -10.667914 -2.201468 -86.579574
LeftForeArm -2.515749 0.000000 123.976561
LeftHand 13.516776 -0.000000 -2.938052
LeftHandThumb1 -26.253704 0.000000 33.147579
RightShoulder -23.529767 -16.106209 -19.183901
RightArm 5.506643 -8.723558 89.530760
RightForeArm -11.632539 -0.000000 16.516024
RightHand 17.553823 0.000000 4.797467
RightHandThumb1 -24.326973 -0.000000 -32.862282
LeftUpLeg -5.468158 -0.847235 16.178452
LeftLeg -2.834985 -0.000000 0.000000
LeftFoot -11.707867 12.811571 -15.503885
LeftToeBase 19.512680 -0.000000 -0.000000
RightUpLeg -39.756014 -6.858998 34.556088
RightLeg 129.086139 -0.000000 -0.000000
RightFoot 33.557684 -21.636870 24.555399
RightToeBase 6.998696 -0.000000 -0.000000
